<svg xmlns="http://www.w3.org/2000/svg" width="1921.834" height="318.575" viewBox="0 0 1921.834 318.575">
  <g id="Group_8343" data-name="Group 8343" transform="translate(307.13 -6261.633)">
    <path id="Path_10882" data-name="Path 10882" d="M7432.74,6426.078c-27.173,0-53.622-.6-78.888-1.781-33.793-1.584-65.994-4.247-95.709-7.915a833.483,833.483,0,0,1-86.642-15.031c-13.6-3.174-26.634-6.69-38.752-10.452-12.439-3.861-24.243-8.085-35.085-12.553a230.049,230.049,0,0,1-33.294-16.9,190.455,190.455,0,0,1-26.932-20.062,165.063,165.063,0,0,1-22.306-24.369l-1.117.047a580.651,580.651,0,0,1-84.333-3.193c-26.845-2.836-50.18-6.854-65.027-9.727-15.765-3.049-25.561-5.486-26.043-5.607-.719-.126-21.483-3.749-52.626-8.507-29.109-4.448-73.5-10.824-119.647-15.945-51.863-5.754-95.336-8.783-129.21-9q-1.95-.012-3.864-.013c-18.409,0-33.984.874-46.349,2.6a120.5,120.5,0,0,0-18.339,3.84,43.408,43.408,0,0,0-12.589,5.792,165.754,165.754,0,0,1-23.626,14.432,110.016,110.016,0,0,1-19.81,7.607l-.261-.966a108.974,108.974,0,0,0,19.628-7.538A164.714,164.714,0,0,0,6455.4,6276.5a44.39,44.39,0,0,1,12.882-5.937,121.528,121.528,0,0,1,18.494-3.875c12.41-1.734,28.037-2.612,46.491-2.612q1.915,0,3.868.013c33.909.218,77.417,3.25,129.316,9.008,25.482,2.828,66.933,7.89,119.688,15.951,31.55,4.821,52.453,8.477,52.661,8.513l.036.008c.1.024,9.952,2.494,26.021,5.6,14.829,2.868,38.134,6.881,64.944,9.712a616.091,616.091,0,0,0,64.417,3.586q10.114,0,19.764-.4l.434-.018a152.349,152.349,0,0,1-13.161-21.5A147.342,147.342,0,0,1,6985.859,6218a145.375,145.375,0,0,1,3.805-24.405,134.5,134.5,0,0,1,14.222-35.59,112.2,112.2,0,0,1,22.87-28.137,90.584,90.584,0,0,1,30.012-17.711,84.6,84.6,0,0,1,35.614-4.292,106.412,106.412,0,0,1,34.009,8.532,83.484,83.484,0,0,1,25.115,17.17,81.592,81.592,0,0,1,16.336,23.543,91.569,91.569,0,0,1,7.7,27.637,102.461,102.461,0,0,1,.55,17.546,108.645,108.645,0,0,1-2.444,17.721,112.266,112.266,0,0,1-5.4,17.414,112.905,112.905,0,0,1-33.632,45.6,117.85,117.85,0,0,1-36.6,20.036,251.285,251.285,0,0,1-40.731,9.823,370.441,370.441,0,0,1-40.944,4.083,164.208,164.208,0,0,0,21.767,23.68,189.393,189.393,0,0,0,26.79,19.956,229.028,229.028,0,0,0,33.149,16.821c10.814,4.458,22.591,8.671,35,12.523,12.1,3.755,25.111,7.265,38.684,10.433a832.367,832.367,0,0,0,86.537,15.013c29.69,3.665,61.866,6.326,95.634,7.909,25.251,1.184,51.689,1.779,78.847,1.779q10.994,0,22.134-.13c33.273-.39,67.786-1.656,102.579-3.764,33.323-2.019,67.112-4.821,100.429-8.329,32.2-3.391,64.01-7.443,94.533-12.046,29.882-4.506,58.443-9.524,84.889-14.914,20.342-4.146,42.657-9.387,66.325-15.576,21.968-5.744,45.638-12.445,70.351-19.917,43.455-13.138,91.325-29.01,142.283-47.174,40.672-14.5,83.371-30.473,126.909-47.481,38.53-15.052,70.517-28.111,90.564-36.416l.383.924c-20.053,8.307-52.046,21.368-90.583,36.423-43.548,17.012-86.255,32.991-126.937,47.492-50.973,18.169-98.859,34.046-142.329,47.189-24.725,7.476-48.407,14.18-70.387,19.928-23.685,6.193-46.019,11.438-66.378,15.587-26.463,5.394-55.04,10.415-84.939,14.923-30.538,4.6-62.358,8.66-94.577,12.052-33.332,3.509-67.136,6.313-100.474,8.333-34.809,2.109-69.338,3.376-102.627,3.766Q7443.746,6426.078,7432.74,6426.078ZM7084.44,6108.5a82.9,82.9,0,0,0-27.343,4.6,89.586,89.586,0,0,0-29.681,17.519,111.2,111.2,0,0,0-22.665,27.888,133.485,133.485,0,0,0-14.115,35.325,144.406,144.406,0,0,0-3.779,24.237,146.371,146.371,0,0,0,15.29,76.034,151.453,151.453,0,0,0,13.47,21.894,370.524,370.524,0,0,0,41.511-4.1,250.25,250.25,0,0,0,40.565-9.782,116.855,116.855,0,0,0,36.3-19.865,111.824,111.824,0,0,0,38.688-62.453,107.724,107.724,0,0,0,2.421-17.557,101.411,101.411,0,0,0-.544-17.375,90.568,90.568,0,0,0-7.618-27.335,80.581,80.581,0,0,0-16.136-23.255,82.483,82.483,0,0,0-24.816-16.964,105.422,105.422,0,0,0-33.69-8.448Q7088.345,6108.5,7084.44,6108.5Z" transform="translate(-6719.419 154.13)" fill="#0356fb" opacity="0.213"/>
    <path id="Path_10881" data-name="Path 10881" d="M7453.764,6535.463q-16.082,0-31.76-.248c-78.153-1.238-147.473-7.115-206.036-17.467-15.165-2.68-29.786-5.7-43.458-8.973-13.912-3.332-27.211-7.015-39.531-10.949-12.539-4-24.4-8.375-35.248-12.991a288.605,288.605,0,0,1-30.611-15.1,202.944,202.944,0,0,1-25.621-17.285q-5.86-4.687-11.013-9.668A300.176,300.176,0,0,1,7000.2,6448a372.731,372.731,0,0,1-44.618,2.575q-2.5,0-5.018-.03a497.178,497.178,0,0,1-52.032-3.491c-17.172-2.025-35.178-4.961-53.517-8.726a872.5,872.5,0,0,1-107.851-29.96c-8.636-2.974-17.717-5.62-26.991-7.863-8.872-2.146-18.156-3.982-27.593-5.455a418.39,418.39,0,0,0-55.7-4.731q-4.928-.1-9.931-.1a594.176,594.176,0,0,0-94.465,8.017c-14.377,2.327-29.019,5.169-43.518,8.447-11.6,2.622-23.134,5.527-34.283,8.636-18.979,5.29-30.4,9.385-30.512,9.426l-.339-.94c.114-.041,11.568-4.148,30.582-9.449,11.165-3.113,22.715-6.022,34.331-8.648,14.519-3.282,29.181-6.128,43.579-8.458a595.14,595.14,0,0,1,94.625-8.03q5.012,0,9.951.1a419.407,419.407,0,0,1,55.833,4.742c9.465,1.478,18.776,3.318,27.674,5.471,9.3,2.251,18.416,4.906,27.081,7.89a871.608,871.608,0,0,0,107.726,29.926c18.312,3.759,36.29,6.69,53.434,8.712a496.094,496.094,0,0,0,51.926,3.484q2.511.03,5.008.03a371.514,371.514,0,0,0,44.5-2.567,299.692,299.692,0,0,0,29.557-5.057q-4.512-4.434-8.4-9.041a111.763,111.763,0,0,1-14.552-21.868,99.029,99.029,0,0,1-8.462-24.252,179.1,179.1,0,0,1-3.785-48.494,125.924,125.924,0,0,1,8.768-39.05,102.637,102.637,0,0,1,68.334-60.972,95.429,95.429,0,0,1,24.983-3.4q.43,0,.859,0a78.387,78.387,0,0,1,24.039,3.853,59.582,59.582,0,0,1,19.948,11.019,81.447,81.447,0,0,1,21.487,27.679,75.307,75.307,0,0,1,6.92,31.318,90.666,90.666,0,0,1-2.979,23.377,111.815,111.815,0,0,1-8.835,22.976,133.272,133.272,0,0,1-13.972,21.64,147.888,147.888,0,0,1-18.4,19.368,190.3,190.3,0,0,1-17.777,13.846,198.842,198.842,0,0,1-19.18,11.634,214.53,214.53,0,0,1-20.467,9.521c-6.922,2.792-14.2,5.318-21.638,7.509q-7.25,2.136-14.873,3.9,4.905,4.7,10.472,9.154a201.968,201.968,0,0,0,25.494,17.2,287.72,287.72,0,0,0,30.5,15.049c10.822,4.6,22.652,8.964,35.161,12.958,12.3,3.926,25.571,7.6,39.459,10.929,13.653,3.269,28.255,6.284,43.4,8.961,58.51,10.342,127.777,16.214,205.877,17.451q15.667.248,31.747.248c65.2,0,135.228-3.06,208.675-9.127,20.3-1.677,41.318-4.146,62.458-7.336,20.221-3.052,41.095-6.847,62.041-11.279,19.973-4.226,40.538-9.142,61.125-14.612,19.558-5.2,39.648-11.03,59.71-17.336,69.41-21.818,141.654-50.215,214.726-84.4,28.708-13.43,57.613-27.8,85.914-42.7,22.641-11.923,44.947-24.216,66.3-36.536,36.353-20.974,57.6-34.933,57.81-35.071l.551.835c-.211.139-21.483,14.114-57.86,35.1-21.364,12.327-43.682,24.625-66.334,36.555-28.314,14.912-57.234,29.286-85.956,42.723-73.112,34.2-145.4,62.616-214.85,84.448-20.077,6.311-40.181,12.148-59.753,17.349-20.6,5.475-41.186,10.395-61.175,14.624-20.965,4.436-41.858,8.234-62.1,11.29-21.161,3.194-42.2,5.666-62.524,7.345C7589.054,6532.4,7518.989,6535.463,7453.764,6535.463ZM7096.519,6235.87a94.427,94.427,0,0,0-24.725,3.367,101.632,101.632,0,0,0-67.669,60.385,124.9,124.9,0,0,0-8.7,38.74,178.106,178.106,0,0,0,3.766,48.222,98.047,98.047,0,0,0,8.377,24.008,110.759,110.759,0,0,0,14.422,21.67q4.05,4.8,8.8,9.422,7.916-1.813,15.448-4.031c7.4-2.182,14.654-4.7,21.546-7.477a213.469,213.469,0,0,0,20.372-9.477,197.557,197.557,0,0,0,19.083-11.575,189.182,189.182,0,0,0,17.684-13.772,146.953,146.953,0,0,0,18.272-19.236,132.31,132.31,0,0,0,13.867-21.477,110.818,110.818,0,0,0,8.756-22.771,89.66,89.66,0,0,0,2.947-23.118,74.321,74.321,0,0,0-6.828-30.906,80.456,80.456,0,0,0-21.227-27.338,58.6,58.6,0,0,0-19.617-10.832,77.411,77.411,0,0,0-23.732-3.8Q7096.942,6235.87,7096.519,6235.87Z" transform="translate(-6719.866 38.13)" fill="#0356fb"/>
  </g>
</svg>
