<svg xmlns="http://www.w3.org/2000/svg" width="1920.214" height="39.809"><g data-name="Group 7865" fill="none"><path data-name="Path 9876" d="M0 27.254c27.229.295 108.118.769 315.541-.184 90.893-.416 322.535-17.457 430.266-16.611 265.975.332 467.605 18.105 654.742 19.206 148.342.872 249.182-2.095 519.658-6.05" stroke="#0435fb"/><path data-name="Path 9877" d="M.045 25.83c60.5 9.655 259.115 28.521 787.14-7.667 665.566-45.615 738.476 11.03 1132.527 4.454" stroke="rgba(4,53,251,0.38)" stroke-width=".5"/><path data-name="Path 9880" d="M.308 31.161c65.5-2.6 183.209-9.308 386.5-23.241 136.2-9.334 768.611 12.413 862.363 10.239 170.363-3.949 448.313-24.386 670.877-.8" stroke="rgba(4,53,251,0.38)" stroke-width=".5"/></g></svg>