<svg xmlns="http://www.w3.org/2000/svg" width="1921.369" height="643.795"><defs><radialGradient id="a" cx=".633" cy=".533" r=".55" gradientTransform="matrix(-1 .003 -.008 -2.706 1.42 2.016)" gradientUnits="objectBoundingBox"><stop offset="0" stop-color="#0a2776"/><stop offset="1" stop-color="#0b205a"/></radialGradient></defs><g data-name="Group 7944"><path data-name="Path 9875" d="M0 .563S187.6 7.571 414.706 6.15 757.695-5.121 908.415-5.121c157.92 0 316.441 9.851 569.337 11.272 123.413.693 231.295-9.741 309.982-11.272C1869.963-6.721 1920 .563 1920 .563V623.8s-192.337 9.492-460.71 7.592c-131.745-.932-276.779 7.055-434.219 7.055-180.48 0-389.428-15.779-555.375-14.648C193.441 625.679 0 631.389 0 631.389z" transform="translate(1.368 5.351)" fill="url(#a)"/><g data-name="Group 7864" fill="none" stroke-width=".5"><path data-name="Path 9895" d="M1921.368 449.134s-357.437.757-535.754-73.151-203.283 97.746-595.258 10.373S503.137 272.04 300.178 214.493 1.367 222.146 1.367 222.146" stroke="#0435fb"/><path data-name="Path 9896" d="M.044 314.324s349.636-63.343 527.952 10.565 266.867-65.595 658.842 21.778 727.013 0 727.013 0" stroke="#707070" opacity=".378"/></g></g></svg>