<svg xmlns="http://www.w3.org/2000/svg" width="1920.414" height="38.651"><g data-name="Group 7866" fill="none"><path data-name="Path 9879" d="M.485.478c29.393 9.111 112.033 26.225 315.3 25.291 90.893-.416 322.535-17.457 430.266-16.611 265.975.332 467.605 18.105 654.742 19.206 148.192.871 248.978-2.089 518.952-6.04" stroke="#0435fb"/><path data-name="Path 9878" d="M.045 28.459c32.1-6.048 110.141-14.746 296.868-18.143 111.309-2.023 308.7 34.01 490.519 21.548 254.955-17.474 422.42-3.234 554.76 0 213.478 5.218 334.92 8.946 578.21 4.454" stroke="rgba(4,53,251,0.38)" stroke-width=".5"/><path data-name="Path 9881" d="M.254 12.359c37.464.981 130.471 3.162 337.912 6.936 111.309 2.023 267.442-16.97 449.266-4.508 254.955 17.474 422.42 3.234 554.76 0 213.478-5.218 334.92-8.946 578.217-4.454" stroke="rgba(4,53,251,0.38)" stroke-width=".5"/></g></svg>